<mxfile host="Electron" modified="2023-12-20T21:27:24.298Z" agent="Mozilla/5.0 (Windows NT 10.0; Win64; x64) AppleWebKit/537.36 (KHTML, like Gecko) draw.io/22.1.11 Chrome/114.0.5735.289 Electron/25.9.8 Safari/537.36" etag="s_-G1lcZYPRBxJPuHCNR" version="22.1.11" type="device">
  <diagram name="Page-1" id="6133507b-19e7-1e82-6fc7-422aa6c4b21f">
    <mxGraphModel dx="1560" dy="1842" grid="1" gridSize="10" guides="1" tooltips="1" connect="1" arrows="1" fold="1" page="1" pageScale="1" pageWidth="1100" pageHeight="850" background="none" math="0" shadow="0">
      <root>
        <mxCell id="0" />
        <mxCell id="1" parent="0" />
        <mxCell id="78961159f06e98e8-43" value="Public.cshtml" style="swimlane;html=1;fontStyle=1;align=center;verticalAlign=top;childLayout=stackLayout;horizontal=1;startSize=26;horizontalStack=0;resizeParent=1;resizeLast=0;collapsible=1;marginBottom=0;swimlaneFillColor=#ffffff;rounded=1;shadow=0;comic=0;labelBackgroundColor=none;strokeWidth=1;fillColor=none;fontFamily=Verdana;fontSize=12" parent="1" vertex="1">
          <mxGeometry x="665" y="120" width="185" height="114" as="geometry" />
        </mxCell>
        <mxCell id="78961159f06e98e8-51" value="" style="line;html=1;strokeWidth=1;fillColor=none;align=left;verticalAlign=middle;spacingTop=-1;spacingLeft=3;spacingRight=3;rotatable=0;labelPosition=right;points=[];portConstraint=eastwest;" parent="78961159f06e98e8-43" vertex="1">
          <mxGeometry y="26" width="185" height="8" as="geometry" />
        </mxCell>
        <mxCell id="78961159f06e98e8-52" value="Post cheep" style="text;html=1;strokeColor=none;fillColor=none;align=left;verticalAlign=top;spacingLeft=4;spacingRight=4;whiteSpace=wrap;overflow=hidden;rotatable=0;points=[[0,0.5],[1,0.5]];portConstraint=eastwest;" parent="78961159f06e98e8-43" vertex="1">
          <mxGeometry y="34" width="185" height="26" as="geometry" />
        </mxCell>
        <mxCell id="VNpGUh701vooE8eZxuNf-27" value="Follow/Unfollow" style="text;html=1;strokeColor=none;fillColor=none;align=left;verticalAlign=top;spacingLeft=4;spacingRight=4;whiteSpace=wrap;overflow=hidden;rotatable=0;points=[[0,0.5],[1,0.5]];portConstraint=eastwest;" parent="78961159f06e98e8-43" vertex="1">
          <mxGeometry y="60" width="185" height="26" as="geometry" />
        </mxCell>
        <mxCell id="VNpGUh701vooE8eZxuNf-1" value="Public.cshtml.cs" style="swimlane;html=1;fontStyle=1;align=center;verticalAlign=top;childLayout=stackLayout;horizontal=1;startSize=26;horizontalStack=0;resizeParent=1;resizeLast=0;collapsible=1;marginBottom=0;swimlaneFillColor=#ffffff;rounded=0;shadow=0;comic=0;labelBackgroundColor=none;strokeWidth=1;fillColor=none;fontFamily=Verdana;fontSize=12" parent="1" vertex="1">
          <mxGeometry x="665" y="350" width="265" height="390" as="geometry" />
        </mxCell>
        <mxCell id="VNpGUh701vooE8eZxuNf-2" value="&lt;div&gt;+ CheepRepository: ICheepRepository&lt;/div&gt;&lt;div&gt;+ AuthorRepository: IAuthorRepository&lt;/div&gt;&lt;div&gt;+ FollowRepository: IFollowRepository&lt;/div&gt;&lt;div&gt;+ Claims: IDictionary&amp;lt;string, string&amp;gt;&lt;/div&gt;&lt;div&gt;+ Cheeps: IEnumerable&amp;lt;CheepDTO&amp;gt;&lt;/div&gt;&lt;div&gt;+ Followers: IEnumerable&amp;lt;string&amp;gt;&lt;/div&gt;&lt;div&gt;+ Followings: IEnumerable&amp;lt;string&amp;gt;&lt;/div&gt;&lt;div&gt;+ FollowersCount: int&lt;/div&gt;&lt;div&gt;+ FollowingsCount: int&lt;/div&gt;&lt;div&gt;+ CurrentPage: int&lt;/div&gt;&lt;div&gt;+ PageCount: int&lt;/div&gt;" style="text;html=1;strokeColor=none;fillColor=none;align=left;verticalAlign=top;spacingLeft=4;spacingRight=4;whiteSpace=wrap;overflow=hidden;rotatable=0;points=[[0,0.5],[1,0.5]];portConstraint=eastwest;" parent="VNpGUh701vooE8eZxuNf-1" vertex="1">
          <mxGeometry y="26" width="265" height="174" as="geometry" />
        </mxCell>
        <mxCell id="VNpGUh701vooE8eZxuNf-4" value="" style="line;html=1;strokeWidth=1;fillColor=none;align=left;verticalAlign=middle;spacingTop=-1;spacingLeft=3;spacingRight=3;rotatable=0;labelPosition=right;points=[];portConstraint=eastwest;" parent="VNpGUh701vooE8eZxuNf-1" vertex="1">
          <mxGeometry y="200" width="265" height="8" as="geometry" />
        </mxCell>
        <mxCell id="VNpGUh701vooE8eZxuNf-5" value="+ OnPostFollow(string): ActionResult" style="text;html=1;strokeColor=none;fillColor=none;align=left;verticalAlign=top;spacingLeft=4;spacingRight=4;whiteSpace=wrap;overflow=hidden;rotatable=0;points=[[0,0.5],[1,0.5]];portConstraint=eastwest;" parent="VNpGUh701vooE8eZxuNf-1" vertex="1">
          <mxGeometry y="208" width="265" height="26" as="geometry" />
        </mxCell>
        <mxCell id="VNpGUh701vooE8eZxuNf-8" value="+ OnPostUnfollow(string): ActionResult" style="text;html=1;strokeColor=none;fillColor=none;align=left;verticalAlign=top;spacingLeft=4;spacingRight=4;whiteSpace=wrap;overflow=hidden;rotatable=0;points=[[0,0.5],[1,0.5]];portConstraint=eastwest;" parent="VNpGUh701vooE8eZxuNf-1" vertex="1">
          <mxGeometry y="234" width="265" height="26" as="geometry" />
        </mxCell>
        <mxCell id="VNpGUh701vooE8eZxuNf-7" value="+ OnPost(string): ActionResult" style="text;html=1;strokeColor=none;fillColor=none;align=left;verticalAlign=top;spacingLeft=4;spacingRight=4;whiteSpace=wrap;overflow=hidden;rotatable=0;points=[[0,0.5],[1,0.5]];portConstraint=eastwest;" parent="VNpGUh701vooE8eZxuNf-1" vertex="1">
          <mxGeometry y="260" width="265" height="26" as="geometry" />
        </mxCell>
        <mxCell id="VNpGUh701vooE8eZxuNf-6" value="+ OnGetAsync(int): Task&amp;lt;ActionResult&amp;gt;" style="text;html=1;strokeColor=none;fillColor=none;align=left;verticalAlign=top;spacingLeft=4;spacingRight=4;whiteSpace=wrap;overflow=hidden;rotatable=0;points=[[0,0.5],[1,0.5]];portConstraint=eastwest;" parent="VNpGUh701vooE8eZxuNf-1" vertex="1">
          <mxGeometry y="286" width="265" height="26" as="geometry" />
        </mxCell>
        <mxCell id="VNpGUh701vooE8eZxuNf-9" value="Profile.cshtml.cs" style="swimlane;html=1;fontStyle=1;align=center;verticalAlign=top;childLayout=stackLayout;horizontal=1;startSize=26;horizontalStack=0;resizeParent=1;resizeLast=0;collapsible=1;marginBottom=0;swimlaneFillColor=#ffffff;rounded=0;shadow=0;comic=0;labelBackgroundColor=none;strokeWidth=1;fillColor=none;fontFamily=Verdana;fontSize=12" parent="1" vertex="1">
          <mxGeometry x="1400" y="350" width="265" height="370" as="geometry" />
        </mxCell>
        <mxCell id="VNpGUh701vooE8eZxuNf-10" value="&lt;div&gt;+ CheepRepository: ICheepRepository&lt;/div&gt;&lt;div&gt;+ AuthorRepository: IAuthorRepository&lt;/div&gt;&lt;div&gt;+ FollowRepository: IFollowRepository&lt;/div&gt;&lt;div&gt;+ Claims: IDictionary&amp;lt;string, string&amp;gt;&lt;/div&gt;&lt;div&gt;+ Cheeps: IEnumerable&amp;lt;CheepDTO&amp;gt;&lt;/div&gt;&lt;div&gt;+ Followers: IEnumerable&amp;lt;string&amp;gt;&lt;/div&gt;&lt;div&gt;+ Followings: IEnumerable&amp;lt;string&amp;gt;&lt;/div&gt;&lt;div&gt;+ FollowersCount: int&lt;/div&gt;&lt;div&gt;+ FollowingsCount: int&lt;/div&gt;&lt;div&gt;+ CurrentPage: int&lt;/div&gt;&lt;div&gt;+ PageCount: int&lt;/div&gt;" style="text;html=1;strokeColor=none;fillColor=none;align=left;verticalAlign=top;spacingLeft=4;spacingRight=4;whiteSpace=wrap;overflow=hidden;rotatable=0;points=[[0,0.5],[1,0.5]];portConstraint=eastwest;" parent="VNpGUh701vooE8eZxuNf-9" vertex="1">
          <mxGeometry y="26" width="265" height="174" as="geometry" />
        </mxCell>
        <mxCell id="VNpGUh701vooE8eZxuNf-11" value="" style="line;html=1;strokeWidth=1;fillColor=none;align=left;verticalAlign=middle;spacingTop=-1;spacingLeft=3;spacingRight=3;rotatable=0;labelPosition=right;points=[];portConstraint=eastwest;" parent="VNpGUh701vooE8eZxuNf-9" vertex="1">
          <mxGeometry y="200" width="265" height="8" as="geometry" />
        </mxCell>
        <mxCell id="VNpGUh701vooE8eZxuNf-12" value="+ OnPostFollow(string): ActionResult" style="text;html=1;strokeColor=none;fillColor=none;align=left;verticalAlign=top;spacingLeft=4;spacingRight=4;whiteSpace=wrap;overflow=hidden;rotatable=0;points=[[0,0.5],[1,0.5]];portConstraint=eastwest;" parent="VNpGUh701vooE8eZxuNf-9" vertex="1">
          <mxGeometry y="208" width="265" height="26" as="geometry" />
        </mxCell>
        <mxCell id="VNpGUh701vooE8eZxuNf-13" value="+ OnPostUnfollow(string): ActionResult" style="text;html=1;strokeColor=none;fillColor=none;align=left;verticalAlign=top;spacingLeft=4;spacingRight=4;whiteSpace=wrap;overflow=hidden;rotatable=0;points=[[0,0.5],[1,0.5]];portConstraint=eastwest;" parent="VNpGUh701vooE8eZxuNf-9" vertex="1">
          <mxGeometry y="234" width="265" height="26" as="geometry" />
        </mxCell>
        <mxCell id="VNpGUh701vooE8eZxuNf-14" value="+ OnPost(string): ActionResult" style="text;html=1;strokeColor=none;fillColor=none;align=left;verticalAlign=top;spacingLeft=4;spacingRight=4;whiteSpace=wrap;overflow=hidden;rotatable=0;points=[[0,0.5],[1,0.5]];portConstraint=eastwest;" parent="VNpGUh701vooE8eZxuNf-9" vertex="1">
          <mxGeometry y="260" width="265" height="26" as="geometry" />
        </mxCell>
        <mxCell id="VNpGUh701vooE8eZxuNf-15" value="+ OnGetAsync(int): Task&amp;lt;ActionResult&amp;gt;" style="text;html=1;strokeColor=none;fillColor=none;align=left;verticalAlign=top;spacingLeft=4;spacingRight=4;whiteSpace=wrap;overflow=hidden;rotatable=0;points=[[0,0.5],[1,0.5]];portConstraint=eastwest;" parent="VNpGUh701vooE8eZxuNf-9" vertex="1">
          <mxGeometry y="286" width="265" height="26" as="geometry" />
        </mxCell>
        <mxCell id="VNpGUh701vooE8eZxuNf-16" value="+ OnPostDeleteAccount(string): void" style="text;html=1;strokeColor=none;fillColor=none;align=left;verticalAlign=top;spacingLeft=4;spacingRight=4;whiteSpace=wrap;overflow=hidden;rotatable=0;points=[[0,0.5],[1,0.5]];portConstraint=eastwest;" parent="VNpGUh701vooE8eZxuNf-9" vertex="1">
          <mxGeometry y="312" width="265" height="26" as="geometry" />
        </mxCell>
        <mxCell id="VNpGUh701vooE8eZxuNf-17" value="- GetClaims(): void" style="text;html=1;strokeColor=none;fillColor=none;align=left;verticalAlign=top;spacingLeft=4;spacingRight=4;whiteSpace=wrap;overflow=hidden;rotatable=0;points=[[0,0.5],[1,0.5]];portConstraint=eastwest;" parent="VNpGUh701vooE8eZxuNf-9" vertex="1">
          <mxGeometry y="338" width="265" height="26" as="geometry" />
        </mxCell>
        <mxCell id="VNpGUh701vooE8eZxuNf-18" value="UserTimeline.cshtml.cs" style="swimlane;html=1;fontStyle=1;align=center;verticalAlign=top;childLayout=stackLayout;horizontal=1;startSize=26;horizontalStack=0;resizeParent=1;resizeLast=0;collapsible=1;marginBottom=0;swimlaneFillColor=#ffffff;rounded=0;shadow=0;comic=0;labelBackgroundColor=none;strokeWidth=1;fillColor=none;fontFamily=Verdana;fontSize=12" parent="1" vertex="1">
          <mxGeometry x="1040" y="350" width="265" height="290" as="geometry" />
        </mxCell>
        <mxCell id="VNpGUh701vooE8eZxuNf-19" value="&lt;div&gt;+ CheepRepository: ICheepRepository&lt;/div&gt;&lt;div&gt;+ AuthorRepository: IAuthorRepository&lt;/div&gt;&lt;div&gt;+ FollowRepository: IFollowRepository&lt;/div&gt;&lt;div&gt;+ Cheeps: IEnumerable&amp;lt;CheepDTO&amp;gt;&lt;/div&gt;&lt;div&gt;+ Test: string&lt;/div&gt;&lt;div&gt;+ FollowersCount: int&lt;/div&gt;&lt;div&gt;+ FollowingsCount: int&lt;/div&gt;&lt;div&gt;+ PageCount: int&lt;/div&gt;" style="text;html=1;strokeColor=none;fillColor=none;align=left;verticalAlign=top;spacingLeft=4;spacingRight=4;whiteSpace=wrap;overflow=hidden;rotatable=0;points=[[0,0.5],[1,0.5]];portConstraint=eastwest;" parent="VNpGUh701vooE8eZxuNf-18" vertex="1">
          <mxGeometry y="26" width="265" height="134" as="geometry" />
        </mxCell>
        <mxCell id="VNpGUh701vooE8eZxuNf-20" value="" style="line;html=1;strokeWidth=1;fillColor=none;align=left;verticalAlign=middle;spacingTop=-1;spacingLeft=3;spacingRight=3;rotatable=0;labelPosition=right;points=[];portConstraint=eastwest;" parent="VNpGUh701vooE8eZxuNf-18" vertex="1">
          <mxGeometry y="160" width="265" height="8" as="geometry" />
        </mxCell>
        <mxCell id="VNpGUh701vooE8eZxuNf-21" value="+ OnPostFollow(string): ActionResult" style="text;html=1;strokeColor=none;fillColor=none;align=left;verticalAlign=top;spacingLeft=4;spacingRight=4;whiteSpace=wrap;overflow=hidden;rotatable=0;points=[[0,0.5],[1,0.5]];portConstraint=eastwest;" parent="VNpGUh701vooE8eZxuNf-18" vertex="1">
          <mxGeometry y="168" width="265" height="26" as="geometry" />
        </mxCell>
        <mxCell id="VNpGUh701vooE8eZxuNf-22" value="+ OnPostUnfollow(string): ActionResult" style="text;html=1;strokeColor=none;fillColor=none;align=left;verticalAlign=top;spacingLeft=4;spacingRight=4;whiteSpace=wrap;overflow=hidden;rotatable=0;points=[[0,0.5],[1,0.5]];portConstraint=eastwest;" parent="VNpGUh701vooE8eZxuNf-18" vertex="1">
          <mxGeometry y="194" width="265" height="26" as="geometry" />
        </mxCell>
        <mxCell id="VNpGUh701vooE8eZxuNf-23" value="+ OnPost(string): ActionResult" style="text;html=1;strokeColor=none;fillColor=none;align=left;verticalAlign=top;spacingLeft=4;spacingRight=4;whiteSpace=wrap;overflow=hidden;rotatable=0;points=[[0,0.5],[1,0.5]];portConstraint=eastwest;" parent="VNpGUh701vooE8eZxuNf-18" vertex="1">
          <mxGeometry y="220" width="265" height="26" as="geometry" />
        </mxCell>
        <mxCell id="VNpGUh701vooE8eZxuNf-24" value="+ OnGetAsync(int): Task&amp;lt;ActionResult&amp;gt;" style="text;html=1;strokeColor=none;fillColor=none;align=left;verticalAlign=top;spacingLeft=4;spacingRight=4;whiteSpace=wrap;overflow=hidden;rotatable=0;points=[[0,0.5],[1,0.5]];portConstraint=eastwest;" parent="VNpGUh701vooE8eZxuNf-18" vertex="1">
          <mxGeometry y="246" width="265" height="26" as="geometry" />
        </mxCell>
        <mxCell id="VNpGUh701vooE8eZxuNf-29" value="UserTimeline.cshtml" style="swimlane;html=1;fontStyle=1;align=center;verticalAlign=top;childLayout=stackLayout;horizontal=1;startSize=26;horizontalStack=0;resizeParent=1;resizeLast=0;collapsible=1;marginBottom=0;swimlaneFillColor=#ffffff;rounded=1;shadow=0;comic=0;labelBackgroundColor=none;strokeWidth=1;fillColor=none;fontFamily=Verdana;fontSize=12" parent="1" vertex="1">
          <mxGeometry x="1040" y="123.99999999999997" width="160" height="164" as="geometry" />
        </mxCell>
        <mxCell id="VNpGUh701vooE8eZxuNf-30" value="" style="line;html=1;strokeWidth=1;fillColor=none;align=left;verticalAlign=middle;spacingTop=-1;spacingLeft=3;spacingRight=3;rotatable=0;labelPosition=right;points=[];portConstraint=eastwest;" parent="VNpGUh701vooE8eZxuNf-29" vertex="1">
          <mxGeometry y="26" width="160" height="8" as="geometry" />
        </mxCell>
        <mxCell id="VNpGUh701vooE8eZxuNf-31" value="Post cheep" style="text;html=1;strokeColor=none;fillColor=none;align=left;verticalAlign=top;spacingLeft=4;spacingRight=4;whiteSpace=wrap;overflow=hidden;rotatable=0;points=[[0,0.5],[1,0.5]];portConstraint=eastwest;" parent="VNpGUh701vooE8eZxuNf-29" vertex="1">
          <mxGeometry y="34" width="160" height="26" as="geometry" />
        </mxCell>
        <mxCell id="VNpGUh701vooE8eZxuNf-32" value="Follow/Unfollow" style="text;html=1;strokeColor=none;fillColor=none;align=left;verticalAlign=top;spacingLeft=4;spacingRight=4;whiteSpace=wrap;overflow=hidden;rotatable=0;points=[[0,0.5],[1,0.5]];portConstraint=eastwest;" parent="VNpGUh701vooE8eZxuNf-29" vertex="1">
          <mxGeometry y="60" width="160" height="26" as="geometry" />
        </mxCell>
        <mxCell id="VNpGUh701vooE8eZxuNf-44" value="Show followers count" style="text;html=1;strokeColor=none;fillColor=none;align=left;verticalAlign=top;spacingLeft=4;spacingRight=4;whiteSpace=wrap;overflow=hidden;rotatable=0;points=[[0,0.5],[1,0.5]];portConstraint=eastwest;" parent="VNpGUh701vooE8eZxuNf-29" vertex="1">
          <mxGeometry y="86" width="160" height="26" as="geometry" />
        </mxCell>
        <mxCell id="VNpGUh701vooE8eZxuNf-45" value="Show followings count" style="text;html=1;strokeColor=none;fillColor=none;align=left;verticalAlign=top;spacingLeft=4;spacingRight=4;whiteSpace=wrap;overflow=hidden;rotatable=0;points=[[0,0.5],[1,0.5]];portConstraint=eastwest;" parent="VNpGUh701vooE8eZxuNf-29" vertex="1">
          <mxGeometry y="112" width="160" height="26" as="geometry" />
        </mxCell>
        <mxCell id="VNpGUh701vooE8eZxuNf-39" value="Profile.cshtml" style="swimlane;html=1;fontStyle=1;align=center;verticalAlign=top;childLayout=stackLayout;horizontal=1;startSize=26;horizontalStack=0;resizeParent=1;resizeLast=0;collapsible=1;marginBottom=0;swimlaneFillColor=#ffffff;rounded=1;shadow=0;comic=0;labelBackgroundColor=none;strokeWidth=1;fillColor=none;fontFamily=Verdana;fontSize=12" parent="1" vertex="1">
          <mxGeometry x="1400" y="123.99999999999997" width="160" height="164" as="geometry" />
        </mxCell>
        <mxCell id="VNpGUh701vooE8eZxuNf-40" value="" style="line;html=1;strokeWidth=1;fillColor=none;align=left;verticalAlign=middle;spacingTop=-1;spacingLeft=3;spacingRight=3;rotatable=0;labelPosition=right;points=[];portConstraint=eastwest;" parent="VNpGUh701vooE8eZxuNf-39" vertex="1">
          <mxGeometry y="26" width="160" height="8" as="geometry" />
        </mxCell>
        <mxCell id="VNpGUh701vooE8eZxuNf-42" value="Follow/Unfollow" style="text;html=1;strokeColor=none;fillColor=none;align=left;verticalAlign=top;spacingLeft=4;spacingRight=4;whiteSpace=wrap;overflow=hidden;rotatable=0;points=[[0,0.5],[1,0.5]];portConstraint=eastwest;" parent="VNpGUh701vooE8eZxuNf-39" vertex="1">
          <mxGeometry y="34" width="160" height="26" as="geometry" />
        </mxCell>
        <mxCell id="VNpGUh701vooE8eZxuNf-41" value="Delete account" style="text;html=1;strokeColor=none;fillColor=none;align=left;verticalAlign=top;spacingLeft=4;spacingRight=4;whiteSpace=wrap;overflow=hidden;rotatable=0;points=[[0,0.5],[1,0.5]];portConstraint=eastwest;" parent="VNpGUh701vooE8eZxuNf-39" vertex="1">
          <mxGeometry y="60" width="160" height="26" as="geometry" />
        </mxCell>
        <mxCell id="VNpGUh701vooE8eZxuNf-48" value="_Layout.cshtml" style="swimlane;html=1;fontStyle=1;align=center;verticalAlign=top;childLayout=stackLayout;horizontal=1;startSize=26;horizontalStack=0;resizeParent=1;resizeLast=0;collapsible=1;marginBottom=0;swimlaneFillColor=#ffffff;rounded=1;shadow=0;comic=0;labelBackgroundColor=none;strokeWidth=1;fillColor=none;fontFamily=Verdana;fontSize=12" parent="1" vertex="1">
          <mxGeometry x="1040" y="-140" width="160" height="120" as="geometry" />
        </mxCell>
        <mxCell id="VNpGUh701vooE8eZxuNf-49" value="" style="line;html=1;strokeWidth=1;fillColor=none;align=left;verticalAlign=middle;spacingTop=-1;spacingLeft=3;spacingRight=3;rotatable=0;labelPosition=right;points=[];portConstraint=eastwest;" parent="VNpGUh701vooE8eZxuNf-48" vertex="1">
          <mxGeometry y="26" width="160" height="8" as="geometry" />
        </mxCell>
        <mxCell id="VNpGUh701vooE8eZxuNf-50" value="href &quot;/&quot;" style="text;html=1;strokeColor=none;fillColor=none;align=left;verticalAlign=top;spacingLeft=4;spacingRight=4;whiteSpace=wrap;overflow=hidden;rotatable=0;points=[[0,0.5],[1,0.5]];portConstraint=eastwest;" parent="VNpGUh701vooE8eZxuNf-48" vertex="1">
          <mxGeometry y="34" width="160" height="26" as="geometry" />
        </mxCell>
        <mxCell id="VNpGUh701vooE8eZxuNf-51" value="href &quot;/@User.Identity.Name&quot;" style="text;html=1;strokeColor=none;fillColor=none;align=left;verticalAlign=top;spacingLeft=4;spacingRight=4;whiteSpace=wrap;overflow=hidden;rotatable=0;points=[[0,0.5],[1,0.5]];portConstraint=eastwest;" parent="VNpGUh701vooE8eZxuNf-48" vertex="1">
          <mxGeometry y="60" width="160" height="26" as="geometry" />
        </mxCell>
        <mxCell id="VNpGUh701vooE8eZxuNf-55" value="" style="whiteSpace=wrap;html=1;" parent="1" vertex="1">
          <mxGeometry x="1780" y="470" width="360" height="450" as="geometry" />
        </mxCell>
        <mxCell id="VNpGUh701vooE8eZxuNf-56" value="&lt;b&gt;&lt;font style=&quot;font-size: 16px;&quot;&gt;Legend&lt;/font&gt;&lt;/b&gt;" style="text;html=1;strokeColor=none;fillColor=none;align=center;verticalAlign=middle;whiteSpace=wrap;rounded=0;" parent="1" vertex="1">
          <mxGeometry x="1780" y="470" width="80" height="40" as="geometry" />
        </mxCell>
        <mxCell id="VNpGUh701vooE8eZxuNf-57" value="Classname" style="swimlane;html=1;fontStyle=1;align=center;verticalAlign=top;childLayout=stackLayout;horizontal=1;startSize=26;horizontalStack=0;resizeParent=1;resizeLast=0;collapsible=1;marginBottom=0;swimlaneFillColor=#ffffff;rounded=0;shadow=0;comic=0;labelBackgroundColor=none;strokeWidth=1;fillColor=none;fontFamily=Verdana;fontSize=12" parent="1" vertex="1">
          <mxGeometry x="1790" y="510" width="160" height="118" as="geometry" />
        </mxCell>
        <mxCell id="VNpGUh701vooE8eZxuNf-58" value="+ field: type" style="text;html=1;strokeColor=none;fillColor=none;align=left;verticalAlign=top;spacingLeft=4;spacingRight=4;whiteSpace=wrap;overflow=hidden;rotatable=0;points=[[0,0.5],[1,0.5]];portConstraint=eastwest;" parent="VNpGUh701vooE8eZxuNf-57" vertex="1">
          <mxGeometry y="26" width="160" height="26" as="geometry" />
        </mxCell>
        <mxCell id="VNpGUh701vooE8eZxuNf-59" value="+ field: type" style="text;html=1;strokeColor=none;fillColor=none;align=left;verticalAlign=top;spacingLeft=4;spacingRight=4;whiteSpace=wrap;overflow=hidden;rotatable=0;points=[[0,0.5],[1,0.5]];portConstraint=eastwest;" parent="VNpGUh701vooE8eZxuNf-57" vertex="1">
          <mxGeometry y="52" width="160" height="26" as="geometry" />
        </mxCell>
        <mxCell id="VNpGUh701vooE8eZxuNf-60" value="" style="line;html=1;strokeWidth=1;fillColor=none;align=left;verticalAlign=middle;spacingTop=-1;spacingLeft=3;spacingRight=3;rotatable=0;labelPosition=right;points=[];portConstraint=eastwest;" parent="VNpGUh701vooE8eZxuNf-57" vertex="1">
          <mxGeometry y="78" width="160" height="8" as="geometry" />
        </mxCell>
        <mxCell id="VNpGUh701vooE8eZxuNf-61" value="+ method(type): type" style="text;html=1;strokeColor=none;fillColor=none;align=left;verticalAlign=top;spacingLeft=4;spacingRight=4;whiteSpace=wrap;overflow=hidden;rotatable=0;points=[[0,0.5],[1,0.5]];portConstraint=eastwest;" parent="VNpGUh701vooE8eZxuNf-57" vertex="1">
          <mxGeometry y="86" width="160" height="26" as="geometry" />
        </mxCell>
        <mxCell id="VNpGUh701vooE8eZxuNf-63" value="Classname" style="swimlane;html=1;fontStyle=1;align=center;verticalAlign=top;childLayout=stackLayout;horizontal=1;startSize=26;horizontalStack=0;resizeParent=1;resizeLast=0;collapsible=1;marginBottom=0;swimlaneFillColor=#ffffff;rounded=1;shadow=0;comic=0;labelBackgroundColor=none;strokeWidth=1;fillColor=none;fontFamily=Verdana;fontSize=12" parent="1" vertex="1">
          <mxGeometry x="1790" y="640" width="160" height="100" as="geometry" />
        </mxCell>
        <mxCell id="VNpGUh701vooE8eZxuNf-64" value="" style="line;html=1;strokeWidth=1;fillColor=none;align=left;verticalAlign=middle;spacingTop=-1;spacingLeft=3;spacingRight=3;rotatable=0;labelPosition=right;points=[];portConstraint=eastwest;" parent="VNpGUh701vooE8eZxuNf-63" vertex="1">
          <mxGeometry y="26" width="160" height="8" as="geometry" />
        </mxCell>
        <mxCell id="VNpGUh701vooE8eZxuNf-65" value="Functionality found on this webpage" style="text;html=1;strokeColor=none;fillColor=none;align=left;verticalAlign=top;spacingLeft=4;spacingRight=4;whiteSpace=wrap;overflow=hidden;rotatable=0;points=[[0,0.5],[1,0.5]];portConstraint=eastwest;" parent="VNpGUh701vooE8eZxuNf-63" vertex="1">
          <mxGeometry y="34" width="160" height="36" as="geometry" />
        </mxCell>
        <mxCell id="VNpGUh701vooE8eZxuNf-67" value="href found on this webpage" style="text;html=1;strokeColor=none;fillColor=none;align=left;verticalAlign=top;spacingLeft=4;spacingRight=4;whiteSpace=wrap;overflow=hidden;rotatable=0;points=[[0,0.5],[1,0.5]];portConstraint=eastwest;" parent="VNpGUh701vooE8eZxuNf-63" vertex="1">
          <mxGeometry y="70" width="160" height="26" as="geometry" />
        </mxCell>
        <mxCell id="I_icbWbmAUZgVArJZ0Zs-1" style="edgeStyle=orthogonalEdgeStyle;rounded=0;orthogonalLoop=1;jettySize=auto;html=1;entryX=0.75;entryY=1;entryDx=0;entryDy=0;" edge="1" parent="1" source="VNpGUh701vooE8eZxuNf-1" target="78961159f06e98e8-43">
          <mxGeometry relative="1" as="geometry">
            <Array as="points">
              <mxPoint x="860" y="290" />
              <mxPoint x="804" y="290" />
              <mxPoint x="804" y="240" />
            </Array>
          </mxGeometry>
        </mxCell>
        <mxCell id="I_icbWbmAUZgVArJZ0Zs-2" style="edgeStyle=orthogonalEdgeStyle;rounded=0;orthogonalLoop=1;jettySize=auto;html=1;entryX=0.459;entryY=1.155;entryDx=0;entryDy=0;entryPerimeter=0;" edge="1" parent="1" source="VNpGUh701vooE8eZxuNf-18" target="VNpGUh701vooE8eZxuNf-33">
          <mxGeometry relative="1" as="geometry">
            <mxPoint x="1200" y="132" as="targetPoint" />
            <Array as="points">
              <mxPoint x="1173" y="330" />
              <mxPoint x="1091" y="330" />
            </Array>
          </mxGeometry>
        </mxCell>
        <mxCell id="I_icbWbmAUZgVArJZ0Zs-3" style="edgeStyle=orthogonalEdgeStyle;rounded=0;orthogonalLoop=1;jettySize=auto;html=1;entryX=0.463;entryY=0.931;entryDx=0;entryDy=0;entryPerimeter=0;" edge="1" parent="1" source="VNpGUh701vooE8eZxuNf-9" target="VNpGUh701vooE8eZxuNf-47">
          <mxGeometry relative="1" as="geometry">
            <Array as="points">
              <mxPoint x="1590" y="310" />
              <mxPoint x="1442" y="310" />
            </Array>
          </mxGeometry>
        </mxCell>
        <mxCell id="I_icbWbmAUZgVArJZ0Zs-4" style="edgeStyle=orthogonalEdgeStyle;rounded=0;orthogonalLoop=1;jettySize=auto;html=1;entryX=0.01;entryY=0.054;entryDx=0;entryDy=0;entryPerimeter=0;dashed=1;dashPattern=8 8;" edge="1" parent="1" source="VNpGUh701vooE8eZxuNf-28" target="VNpGUh701vooE8eZxuNf-29">
          <mxGeometry relative="1" as="geometry" />
        </mxCell>
        <mxCell id="VNpGUh701vooE8eZxuNf-28" value="href cheep.author" style="text;html=1;strokeColor=none;fillColor=none;align=left;verticalAlign=top;spacingLeft=4;spacingRight=4;whiteSpace=wrap;overflow=hidden;rotatable=0;points=[[0,0.5],[1,0.5]];portConstraint=eastwest;" parent="1" vertex="1">
          <mxGeometry x="665" y="206" width="115" height="26" as="geometry" />
        </mxCell>
        <mxCell id="I_icbWbmAUZgVArJZ0Zs-5" style="edgeStyle=orthogonalEdgeStyle;rounded=0;orthogonalLoop=1;jettySize=auto;html=1;exitX=1;exitY=0.5;exitDx=0;exitDy=0;" edge="1" parent="1" source="VNpGUh701vooE8eZxuNf-28" target="VNpGUh701vooE8eZxuNf-28">
          <mxGeometry relative="1" as="geometry" />
        </mxCell>
        <mxCell id="VNpGUh701vooE8eZxuNf-33" value="href cheep.author" style="text;html=1;strokeColor=none;fillColor=none;align=left;verticalAlign=top;spacingLeft=4;spacingRight=4;whiteSpace=wrap;overflow=hidden;rotatable=0;points=[[0,0.5],[1,0.5]];portConstraint=eastwest;" parent="1" vertex="1">
          <mxGeometry x="1040" y="262" width="110" height="26" as="geometry" />
        </mxCell>
        <mxCell id="I_icbWbmAUZgVArJZ0Zs-7" style="edgeStyle=orthogonalEdgeStyle;rounded=0;orthogonalLoop=1;jettySize=auto;html=1;entryX=0.998;entryY=0.085;entryDx=0;entryDy=0;entryPerimeter=0;dashed=1;dashPattern=8 8;" edge="1" parent="1" source="VNpGUh701vooE8eZxuNf-33" target="VNpGUh701vooE8eZxuNf-29">
          <mxGeometry relative="1" as="geometry">
            <Array as="points">
              <mxPoint x="1260" y="275" />
              <mxPoint x="1260" y="138" />
            </Array>
          </mxGeometry>
        </mxCell>
        <mxCell id="VNpGUh701vooE8eZxuNf-47" value="href followers&lt;br&gt;" style="text;html=1;strokeColor=none;fillColor=none;align=left;verticalAlign=top;spacingLeft=4;spacingRight=4;whiteSpace=wrap;overflow=hidden;rotatable=0;points=[[0,0.5],[1,0.5]];portConstraint=eastwest;" parent="1" vertex="1">
          <mxGeometry x="1400" y="262" width="90" height="26" as="geometry" />
        </mxCell>
        <mxCell id="VNpGUh701vooE8eZxuNf-46" value="href following" style="text;html=1;strokeColor=none;fillColor=none;align=left;verticalAlign=top;spacingLeft=4;spacingRight=4;whiteSpace=wrap;overflow=hidden;rotatable=0;points=[[0,0.5],[1,0.5]];portConstraint=eastwest;" parent="1" vertex="1">
          <mxGeometry x="1400" y="236" width="90" height="26" as="geometry" />
        </mxCell>
        <mxCell id="VNpGUh701vooE8eZxuNf-43" value="href cheep.author" style="text;html=1;strokeColor=none;fillColor=none;align=left;verticalAlign=top;spacingLeft=4;spacingRight=4;whiteSpace=wrap;overflow=hidden;rotatable=0;points=[[0,0.5],[1,0.5]];portConstraint=eastwest;" parent="1" vertex="1">
          <mxGeometry x="1400" y="210" width="110" height="26" as="geometry" />
        </mxCell>
        <mxCell id="I_icbWbmAUZgVArJZ0Zs-8" style="edgeStyle=orthogonalEdgeStyle;rounded=0;orthogonalLoop=1;jettySize=auto;html=1;entryX=0.827;entryY=-0.013;entryDx=0;entryDy=0;entryPerimeter=0;dashed=1;dashPattern=8 8;" edge="1" parent="1" source="VNpGUh701vooE8eZxuNf-43" target="VNpGUh701vooE8eZxuNf-29">
          <mxGeometry relative="1" as="geometry">
            <Array as="points">
              <mxPoint x="1380" y="223" />
              <mxPoint x="1380" y="70" />
              <mxPoint x="1172" y="70" />
              <mxPoint x="1172" y="90" />
            </Array>
          </mxGeometry>
        </mxCell>
        <mxCell id="I_icbWbmAUZgVArJZ0Zs-9" style="edgeStyle=orthogonalEdgeStyle;rounded=0;orthogonalLoop=1;jettySize=auto;html=1;entryX=0.934;entryY=-0.007;entryDx=0;entryDy=0;entryPerimeter=0;dashed=1;dashPattern=8 8;" edge="1" parent="1" source="VNpGUh701vooE8eZxuNf-46" target="VNpGUh701vooE8eZxuNf-29">
          <mxGeometry relative="1" as="geometry">
            <Array as="points">
              <mxPoint x="1360" y="249" />
              <mxPoint x="1360" y="90" />
              <mxPoint x="1189" y="90" />
            </Array>
          </mxGeometry>
        </mxCell>
        <mxCell id="I_icbWbmAUZgVArJZ0Zs-10" style="edgeStyle=orthogonalEdgeStyle;rounded=0;orthogonalLoop=1;jettySize=auto;html=1;entryX=1;entryY=0;entryDx=0;entryDy=0;dashed=1;dashPattern=8 8;" edge="1" parent="1" source="VNpGUh701vooE8eZxuNf-47" target="VNpGUh701vooE8eZxuNf-29">
          <mxGeometry relative="1" as="geometry">
            <Array as="points">
              <mxPoint x="1310" y="275" />
              <mxPoint x="1310" y="124" />
            </Array>
          </mxGeometry>
        </mxCell>
        <mxCell id="I_icbWbmAUZgVArJZ0Zs-11" style="edgeStyle=orthogonalEdgeStyle;rounded=0;orthogonalLoop=1;jettySize=auto;html=1;entryX=0.5;entryY=0;entryDx=0;entryDy=0;dashed=1;dashPattern=8 8;" edge="1" parent="1" source="VNpGUh701vooE8eZxuNf-50" target="78961159f06e98e8-43">
          <mxGeometry relative="1" as="geometry" />
        </mxCell>
        <mxCell id="I_icbWbmAUZgVArJZ0Zs-13" style="edgeStyle=orthogonalEdgeStyle;rounded=0;orthogonalLoop=1;jettySize=auto;html=1;entryX=0.25;entryY=0;entryDx=0;entryDy=0;dashed=1;dashPattern=8 8;" edge="1" parent="1" source="VNpGUh701vooE8eZxuNf-51" target="VNpGUh701vooE8eZxuNf-29">
          <mxGeometry relative="1" as="geometry" />
        </mxCell>
        <mxCell id="I_icbWbmAUZgVArJZ0Zs-14" style="edgeStyle=orthogonalEdgeStyle;rounded=0;orthogonalLoop=1;jettySize=auto;html=1;entryX=0.75;entryY=0;entryDx=0;entryDy=0;dashed=1;dashPattern=8 8;" edge="1" parent="1" source="VNpGUh701vooE8eZxuNf-52" target="VNpGUh701vooE8eZxuNf-39">
          <mxGeometry relative="1" as="geometry" />
        </mxCell>
        <mxCell id="VNpGUh701vooE8eZxuNf-52" value="href &quot;/profile&quot;" style="text;html=1;strokeColor=none;fillColor=none;align=left;verticalAlign=top;spacingLeft=4;spacingRight=4;whiteSpace=wrap;overflow=hidden;rotatable=0;points=[[0,0.5],[1,0.5]];portConstraint=eastwest;" parent="1" vertex="1">
          <mxGeometry x="1040" y="-54" width="90" height="26" as="geometry" />
        </mxCell>
        <mxCell id="I_icbWbmAUZgVArJZ0Zs-15" value="" style="endArrow=classic;html=1;rounded=0;" edge="1" parent="1">
          <mxGeometry width="50" height="50" relative="1" as="geometry">
            <mxPoint x="1820" y="810" as="sourcePoint" />
            <mxPoint x="1870" y="760" as="targetPoint" />
          </mxGeometry>
        </mxCell>
        <mxCell id="I_icbWbmAUZgVArJZ0Zs-16" value="" style="endArrow=classic;html=1;rounded=0;dashed=1;dashPattern=8 8;" edge="1" parent="1">
          <mxGeometry width="50" height="50" relative="1" as="geometry">
            <mxPoint x="1810" y="890" as="sourcePoint" />
            <mxPoint x="1860" y="840" as="targetPoint" />
          </mxGeometry>
        </mxCell>
        <mxCell id="I_icbWbmAUZgVArJZ0Zs-18" value="Arrow showing directional association" style="text;html=1;strokeColor=none;fillColor=none;align=center;verticalAlign=middle;whiteSpace=wrap;rounded=0;" vertex="1" parent="1">
          <mxGeometry x="1950" y="750" width="170" height="50" as="geometry" />
        </mxCell>
        <mxCell id="I_icbWbmAUZgVArJZ0Zs-19" value="Arrow showing where reference directs to (start point is a href from a rounded corner class)" style="text;html=1;strokeColor=none;fillColor=none;align=center;verticalAlign=middle;whiteSpace=wrap;rounded=0;" vertex="1" parent="1">
          <mxGeometry x="1950" y="830" width="180" height="50" as="geometry" />
        </mxCell>
      </root>
    </mxGraphModel>
  </diagram>
</mxfile>
